<svg width="16" height="14" viewBox="0 0 16 14" fill="none" xmlns="http://www.w3.org/2000/svg"><path fill-rule="evenodd" clip-rule="evenodd" d="M12.677 13.124a1.864 1.864 0 1 0 0-3.728 1.864 1.864 0 0 0 0 3.728zm0-1.491a.38.38 0 0 1-.373-.373.373.373 0 1 1 .373.373z" fill="#FFBC1C"/><path d="M14.541 7.457a.746.746 0 0 1 0 1.491H7.673l-.984 3.624a.746.746 0 0 1-1.44-.395l.88-3.229H4.967a.887.887 0 0 1-.865-.678l-1.7-6.779H.746A.746.746 0 1 1 .746 0H2.87c.41.002.766.281.865.679l1.693 6.778h9.112z" fill="#FFBC1C"/><path fill-rule="evenodd" clip-rule="evenodd" d="M14.049 6.711a.895.895 0 0 0 .88-.708L15.98 1.08A.895.895 0 0 0 15.108 0H5.764a.895.895 0 0 0-.857 1.081l1.051 4.922c.088.415.456.71.88.708h7.211zM7.308 5.22L6.51 1.49h7.86l-.798 3.729H7.308z" fill="#FFBC1C"/></svg>