<svg width="27" height="29" viewBox="0 0 27 29" fill="none" xmlns="http://www.w3.org/2000/svg"><path fill-rule="evenodd" clip-rule="evenodd" d="M6.486 5.248A1.893 1.893 0 0 1 8.63 4.011l7.963 1.46a3.173 3.173 0 0 1 2.117 1.55l5.86 10.15a3.173 3.173 0 0 1-1.162 4.334l-9.16 5.289a3.173 3.173 0 0 1-4.335-1.162l-5.86-10.149a3.173 3.173 0 0 1-.217-2.598l2.65-7.637zm15.865 14.425c.506-.292.68-.94.387-1.445L16.863 8.051a1.057 1.057 0 0 0-.723-.51l-7.72-1.42-2.63 7.394c-.108.302-.072.636.096.909l5.86 10.15c.292.505.94.678 1.445.386l9.16-5.288z" fill="#000"/><path d="M11.627 12.735a1.587 1.587 0 1 0-1.587-2.748 1.587 1.587 0 0 0 1.587 2.748z" fill="#000"/></svg>