<svg width="22" height="18" viewBox="0 0 22 18" fill="none" xmlns="http://www.w3.org/2000/svg"><path fill-rule="evenodd" clip-rule="evenodd" d="M4.456 17.6a2.5 2.5 0 1 1 0-5 2.5 2.5 0 0 1 0 5zm0-2a.51.51 0 0 0 .5-.5.5.5 0 1 0-.5.5z" fill="#010103"/><path d="M1.956 10a1 1 0 1 0 0 2h9.21l1.32 4.86a1 1 0 1 0 1.93-.53L13.236 12h1.56a1.19 1.19 0 0 0 1.16-.91L18.236 2h2.22a1 1 0 0 0 0-2h-2.85a1.2 1.2 0 0 0-1.16.91L14.176 10H1.956z" fill="#010103"/><path fill-rule="evenodd" clip-rule="evenodd" d="M2.616 9a1.2 1.2 0 0 1-1.18-.95l-1.41-6.6A1.2 1.2 0 0 1 1.196 0h12.53a1.2 1.2 0 0 1 1.15 1.45l-1.41 6.6a1.2 1.2 0 0 1-1.18.95h-9.67zm9.04-2l1.07-5H2.186l1.07 5h8.4z" fill="#010103"/></svg>