<svg width="20" height="22" viewBox="0 0 20 22" fill="none" xmlns="http://www.w3.org/2000/svg"><path fill-rule="evenodd" clip-rule="evenodd" d="M17 0H2.87A2.88 2.88 0 0 0 0 2.87V19a3 3 0 0 0 3 3h14a3 3 0 0 0 3-3V3a3 3 0 0 0-3-3zm-1.1 2A2.07 2.07 0 0 1 18 3.54 2 2 0 0 1 15.54 6 2.07 2.07 0 0 1 14 3.9V2h1.9zM12 2v2a2 2 0 0 1-2.65 1.9A2 2 0 0 1 8 3.9V2h4zM6 2v2a2 2 0 1 1-4-.08V3a1 1 0 0 1 1-1h3zm1 18v-5a3 3 0 0 1 3.56-2.95 3.09 3.09 0 0 1 2.44 3.1V20H7zm10 0h-2v-5a5 5 0 0 0-6-4.9 5.13 5.13 0 0 0-4 5.09V20H3a1 1 0 0 1-1-1V7.46a4.14 4.14 0 0 0 3.73.18 3.58 3.58 0 0 0 1.3-1 4 4 0 0 0 3.8 1.25A3.82 3.82 0 0 0 13 6.59a3.79 3.79 0 0 0 2.26 1.34A4 4 0 0 0 18 7.46V19a1 1 0 0 1-1 1z" fill="#fff"/></svg>