<svg width="16" height="16" viewBox="0 0 16 16" fill="none" xmlns="http://www.w3.org/2000/svg"><path fill-rule="evenodd" clip-rule="evenodd" d="M0 8a8 8 0 1 1 16 0A8 8 0 0 1 0 8zm1.454 0a6.545 6.545 0 1 0 13.091 0 6.545 6.545 0 0 0-13.09 0z" fill="#0E1317"/><path d="M10.437 9.767a.727.727 0 0 0-.917.379 1.6 1.6 0 0 1-1.454 1.025h-.19a1.6 1.6 0 0 1-1.454-1.025.727.727 0 0 0-1.345.552 2.967 2.967 0 0 0 2.785 1.928h.16a2.967 2.967 0 0 0 2.785-1.928.727.727 0 0 0-.37-.93zM5.455 7.273a1.09 1.09 0 1 0 0-2.182 1.09 1.09 0 0 0 0 2.182zm5.09 0a1.09 1.09 0 1 0 0-2.182 1.09 1.09 0 0 0 0 2.182z" fill="#0E1317"/></svg>