<svg width="12" height="11" viewBox="0 0 12 11" fill="none" xmlns="http://www.w3.org/2000/svg"><path fill-rule="evenodd" clip-rule="evenodd" d="M10.677.731a.727.727 0 0 0-1.025 0L1.426 8.964a.727.727 0 1 0 1.026 1.025l8.225-8.225a.727.727 0 0 0 0-1.033zM2.728 3.858a1.818 1.818 0 1 0 0-3.636 1.818 1.818 0 0 0 0 3.636zm-.002-2.182a.364.364 0 1 1 0 .728.364.364 0 0 1 0-.728zm6.547 5.091a1.818 1.818 0 1 0 1.818 1.818 1.81 1.81 0 0 0-1.818-1.818zm0 2.182a.364.364 0 1 1 0-.727.364.364 0 0 1 0 .727z" fill="#010103"/></svg>