<svg width="16" height="14" viewBox="0 0 16 14" fill="none" xmlns="http://www.w3.org/2000/svg"><path fill-rule="evenodd" clip-rule="evenodd" d="M12.989 2.91a.88.88 0 0 1 .727.348l2.11 2.815c.115.15.176.334.174.523v4.168c0 .482-.39.872-.873.872h-2.036a.73.73 0 0 1-.124 0 2.182 2.182 0 0 1-4.109 0H6.415a2.182 2.182 0 0 1-4.102 0h-.131A2.182 2.182 0 0 1 0 9.455V2.182C0 .977.977 0 2.182 0h7.273c1.204 0 2.181.977 2.181 2.182v.727h1.353zm-9.353 8a.727.727 0 1 0 1.455-.001.727.727 0 0 0-1.455 0zm7.273.726a.727.727 0 1 1 0-1.454.727.727 0 0 1 0 1.454zm2.182-1.454h1.454V6.785l-1.818-2.421h-1.09v2.909a.727.727 0 1 1-1.455 0V2.182a.727.727 0 0 0-.727-.727H2.182a.727.727 0 0 0-.727.727v7.273c0 .401.325.727.727.727h.13a2.182 2.182 0 0 1 4.103 0h2.443a2.182 2.182 0 0 1 4.11 0 .73.73 0 0 1 .123 0z" fill="#0E1317"/></svg>