<svg width="16" height="16" viewBox="0 0 16 16" fill="none" xmlns="http://www.w3.org/2000/svg"><path fill-rule="evenodd" clip-rule="evenodd" d="M13.818 0H2.182A2.182 2.182 0 0 0 0 2.182v11.636C0 15.023.977 16 2.182 16h11.636A2.182 2.182 0 0 0 16 13.818V2.182A2.182 2.182 0 0 0 13.818 0zm.728 13.818a.727.727 0 0 1-.728.728H2.182a.727.727 0 0 1-.727-.728V2.182c0-.402.325-.727.727-.727h5.142a.727.727 0 0 0-.051.247V4.61a.727.727 0 0 0 1.454 0V1.7a.727.727 0 0 0-.05-.246h5.141c.402 0 .728.325.728.727v11.636z" fill="#0E1317"/><path fill-rule="evenodd" clip-rule="evenodd" d="M9.41 10.91h1.455a.727.727 0 1 0 0-1.455H9.411a.727.727 0 1 0 0 1.454zm2.91.726H9.41a.727.727 0 1 0 0 1.455h2.91a.727.727 0 0 0 0-1.455z" fill="#0E1317"/></svg>