<svg width="16" height="17" viewBox="0 0 16 17" fill="none" xmlns="http://www.w3.org/2000/svg"><path fill-rule="evenodd" clip-rule="evenodd" d="M3.22 13.174a25.375 25.375 0 0 0 3.585 2.817 2.078 2.078 0 0 0 2.33 0 26.414 26.414 0 0 0 3.386-2.854 10.307 10.307 0 0 0 2.824-4.48.74.74 0 0 0-1.442-.34 8.924 8.924 0 0 1-2.432 3.785 24.396 24.396 0 0 1-3.194 2.677.577.577 0 0 1-.658 0 23.832 23.832 0 0 1-3.38-2.655 8.636 8.636 0 0 1-2.58-3.822 12.57 12.57 0 0 1-.162-2.854c0-.65.066-1.257.11-1.708.281 0 .629.06.999.074a7.238 7.238 0 0 0 2.218-.2 7.394 7.394 0 0 0 2.173-1.168c.37-.273.695-.54.947-.74.251.215.577.489.946.74a7.157 7.157 0 0 0 2.218 1.168.74.74 0 0 0 .392-1.427 5.76 5.76 0 0 1-1.7-.931C9.375.943 8.97.605 8.587.243a.887.887 0 0 0-1.22 0c-.388.36-.795.697-1.22 1.013a6.033 6.033 0 0 1-1.715.939c-.58.139-1.18.186-1.775.14a13.818 13.818 0 0 1-1.478-.133.887.887 0 0 0-.991.791c-.037.37-.133 1.339-.163 2.425-.067 1.08 0 2.162.2 3.224a10.077 10.077 0 0 0 2.994 4.532z" fill="#0E1317"/><path fill-rule="evenodd" clip-rule="evenodd" d="M7.892 5.352a.744.744 0 0 0-.984 1.116l2.219 1.974a.88.88 0 0 0 1.227.082l5.412-5.08a.74.74 0 1 0-1.013-1.08l-4.939 4.66-1.922-1.672z" fill="#0E1317"/></svg>