<?xml version="1.0" standalone="no"?>
<!DOCTYPE svg PUBLIC "-//W3C//DTD SVG 20010904//EN"
 "http://www.w3.org/TR/2001/REC-SVG-20010904/DTD/svg10.dtd">
<svg version="1.0" xmlns="http://www.w3.org/2000/svg"
 width="100.000000pt" height="100.000000pt" viewBox="0 0 100.000000 100.000000"
 preserveAspectRatio="xMidYMid meet">
<metadata>
Created by potrace 1.16, written by Peter Selinger 2001-2019
</metadata>
<g transform="translate(0.000000,100.000000) scale(0.100000,-0.100000)"
fill="#000000" stroke="none">
<path d="M303 981 c3 -13 -3 -22 -20 -30 -17 -8 -24 -17 -21 -29 4 -15 0 -17
-23 -14 -23 3 -29 0 -30 -14 -1 -14 -3 -13 -9 6 -5 14 -8 18 -9 9 -1 -22 -30
-29 -118 -29 l-73 0 0 -440 0 -440 500 0 500 0 0 500 0 500 -276 0 c-235 0
-275 -2 -271 -14 3 -8 -2 -20 -10 -28 -15 -11 -16 -11 -10 5 3 9 2 17 -3 17
-15 0 -25 -4 -23 -10 1 -3 -11 -6 -25 -6 -15 -1 -21 1 -14 3 17 6 15 33 -2 33
-8 0 -17 -10 -19 -22 l-4 -23 -2 23 c-1 15 -7 22 -22 22 -16 0 -20 -5 -16 -19z
m304 -276 c27 -27 40 -33 61 -29 32 5 58 -9 47 -26 -4 -7 -23 -10 -46 -8 -34
3 -39 1 -40 -17 0 -15 -2 -17 -7 -5 -5 12 -15 14 -37 9 -16 -4 -24 -7 -16 -8
8 0 12 -3 10 -6 -3 -2 -19 -1 -36 4 -41 12 -65 -3 -57 -35 10 -40 -1 -56 -31
-42 -17 8 -22 15 -15 22 19 19 10 27 -14 11 -28 -19 -50 -12 -64 19 -9 20 -7
25 11 34 20 9 18 11 -22 21 -49 14 -49 16 5 35 21 8 31 15 22 15 -29 1 -21 19
11 26 18 4 38 1 50 -7 18 -11 26 -10 49 4 45 27 80 22 119 -17z m-200 -187
c-18 -51 -19 -61 -3 -55 9 4 16 2 16 -3 0 -6 29 -39 65 -74 47 -46 65 -71 65
-90 0 -42 -34 -34 -62 16 -13 23 -29 44 -36 46 -10 3 -9 -3 3 -22 10 -14 14
-33 11 -42 -5 -13 -13 -6 -37 30 -17 25 -39 51 -49 56 -17 9 -50 67 -50 89 0
9 67 61 78 61 2 0 2 -6 -1 -12z"/>
</g>
</svg>
