<svg width="18" height="17" viewBox="0 0 18 17" fill="none" xmlns="http://www.w3.org/2000/svg"><path fill-rule="evenodd" clip-rule="evenodd" d="M15.546 1.636h-.819V.818a.818.818 0 1 0-1.636 0v.818H4.909V.818a.818.818 0 1 0-1.636 0v.818h-.818A2.455 2.455 0 0 0 0 4.091v9.818a2.455 2.455 0 0 0 2.455 2.455h13.09A2.454 2.454 0 0 0 18 13.909V4.091a2.455 2.455 0 0 0-2.454-2.455zM1.636 4.091c0-.452.367-.818.819-.818h13.09c.452 0 .819.366.819.818v.818H1.636v-.818zm14.728 9.818a.818.818 0 0 1-.819.818H2.456a.818.818 0 0 1-.819-.818V6.545h14.728v7.364z" fill="#FFBC1C"/><rect x="3.273" y="8.182" width="2.455" height="2.455" rx=".8" fill="#FFBC1C"/><rect x="7.364" y="8.182" width="2.455" height="2.455" rx=".8" fill="#FFBC1C"/></svg>